<svg width="99" height="48" viewBox="0 0 99 48" fill="none" xmlns="http://www.w3.org/2000/svg">
<rect x="17" y="8" width="82" height="40" rx="20" fill="#E4E4E7"/>
<path d="M3.46639 42.0867C6.72888 37.8047 12.7101 34.8821 15.9046 34.3383H21.8179C31.6053 35.8065 36.9749 44.1938 38.3342 48H0C0.326249 46.3688 2.44687 43.3781 3.46639 42.0867Z" fill="#F5C7C4"/>
<path fill-rule="evenodd" clip-rule="evenodd" d="M19.48 34.8026C10.2856 34.8026 2.83203 27.3491 2.83203 18.1546C2.83203 8.96018 10.2856 1.50661 19.48 1.50661C28.2648 1.50661 35.4604 8.31083 36.0842 16.9366C36.0987 16.9365 36.1133 16.9364 36.1279 16.9364C38.819 16.9364 41.0005 19.1179 41.0005 21.809C41.0005 24.5 38.819 26.6816 36.1279 26.6816C35.3843 26.6816 34.6795 26.515 34.049 26.2171C31.2095 31.3371 25.7495 34.8026 19.48 34.8026Z" fill="#FFE0E4"/>
<path d="M24.5781 8.44435C26.5271 12.9921 33.3758 16.024 36.3535 16.9714C35.379 5.92686 25.9458 1.43929 21.6146 0.897897C10.2452 -1.05114 3.5 10.1738 2.65145 15.7533C14.0208 15.7533 22.2771 10.8806 24.5781 8.44435Z" fill="#251812"/>
<ellipse cx="1.21815" cy="2.03025" rx="1.21815" ry="2.03025" transform="matrix(-1 0 0 1 20.1108 16.1593)" fill="#240B09"/>
<ellipse cx="1.21815" cy="2.03025" rx="1.21815" ry="2.03025" transform="matrix(-1 0 0 1 12.8022 16.1593)" fill="#240B09"/>
<path fill-rule="evenodd" clip-rule="evenodd" d="M16.8217 21.8439C16.8483 21.9751 16.8623 22.1108 16.8623 22.2499C16.8623 23.3712 15.9533 24.2801 14.8321 24.2801C13.7108 24.2801 12.8018 23.3712 12.8018 22.2499C12.8018 22.1108 12.8158 21.9751 12.8424 21.8439H16.8217Z" fill="#FB2E59"/>
<ellipse cx="19.4779" cy="34.4651" rx="3.95933" ry="2.9695" fill="#FFE0E4"/>
</svg>
