<svg width="103" height="56" viewBox="0 0 103 56" fill="none" xmlns="http://www.w3.org/2000/svg">
<rect x="21" y="16" width="82" height="40" rx="20" fill="#E4E4E7"/>
<path d="M4.25321 49.3715C8.0338 44.5715 14.9649 41.2953 18.6667 40.6858H25.519C36.8608 42.3315 43.083 51.7334 44.6583 56.0001H0.236328C0.614387 54.1715 3.07177 50.8191 4.25321 49.3715Z" fill="#64528B"/>
<path fill-rule="evenodd" clip-rule="evenodd" d="M21.74 40.9494C12.5616 40.9494 5.12099 33.7518 5.12099 24.873C5.12099 15.9943 12.5616 8.79668 21.74 8.79668C30.5096 8.79668 37.6927 15.3673 38.3152 23.697C38.3298 23.6968 38.3443 23.6968 38.3588 23.6968C41.0452 23.6968 43.2229 25.8034 43.2229 28.4021C43.2229 31.0007 41.0452 33.1073 38.3588 33.1073C37.6165 33.1073 36.913 32.9465 36.2835 32.6588C33.449 37.6029 27.9985 40.9494 21.74 40.9494Z" fill="#FFE0E4"/>
<ellipse cx="1.21603" cy="1.96053" rx="1.21603" ry="1.96053" transform="matrix(-1 0 0 1 22.3701 22.9463)" fill="#240B09"/>
<ellipse cx="1.21603" cy="1.96053" rx="1.21603" ry="1.96053" transform="matrix(-1 0 0 1 15.0737 22.9463)" fill="#240B09"/>
<path fill-rule="evenodd" clip-rule="evenodd" d="M19.0869 28.4357C19.1135 28.5624 19.1274 28.6935 19.1274 28.8278C19.1274 29.9105 18.22 30.7883 17.1007 30.7883C15.9814 30.7883 15.074 29.9105 15.074 28.8278C15.074 28.6935 15.088 28.5624 15.1145 28.4357H19.0869Z" fill="#FB2E59"/>
<path fill-rule="evenodd" clip-rule="evenodd" d="M22.8198 2.35395C21.6433 0.919772 19.8256 0 17.7859 0C15.3436 0 13.2196 1.31874 12.1335 3.26029C11.4326 3.00639 10.6737 2.86756 9.88122 2.86756C6.33406 2.86756 3.45851 5.64921 3.45851 9.08055C3.45851 9.75781 3.57054 10.4098 3.77764 11.02C1.46747 12.1597 0 13.8653 0 15.7714C0 19.2027 4.75571 21.9844 10.6222 21.9844C14.9907 21.9844 18.7432 20.4419 20.3748 18.2373C21.8576 20.3208 24.9 22.1028 28.639 22.8212C30.013 23.0852 31.3568 23.1817 32.6159 23.1298C33.7691 24.1966 35.3326 24.8519 37.0543 24.8519C40.6015 24.8519 43.477 22.0703 43.477 18.639C43.477 16.2108 42.0371 14.1081 39.9383 13.086C40.3071 12.3024 40.5126 11.4316 40.5126 10.5143C40.5126 7.08299 37.637 4.30134 34.0899 4.30134C33.2974 4.30134 32.5385 4.44017 31.8376 4.69407C30.7515 2.75252 28.6275 1.43378 26.1852 1.43378C24.9512 1.43378 23.7984 1.77042 22.8198 2.35395Z" fill="#C1C1C1"/>
<path d="M20.2559 28.1974C21.4087 28.6753 23.4672 30.1091 24.2083 32.0208" stroke="#F7B3AD" stroke-width="0.741082" stroke-linecap="round"/>
<ellipse cx="21.7381" cy="40.1455" rx="3.95244" ry="2.86753" fill="#FFE0E4"/>
</svg>
