<svg width="36" height="36" viewBox="0 0 36 36" fill="none" xmlns="http://www.w3.org/2000/svg">
<ellipse cx="18.1938" cy="18.3803" rx="17.6566" ry="17.612" fill="#E4E4E7"/>
<ellipse cx="12.9875" cy="20.428" rx="1.51343" ry="2.04774" fill="#52525B"/>
<ellipse cx="23.4001" cy="20.428" rx="1.51343" ry="2.04774" fill="#52525B"/>
<path d="M17.5632 10.2033C14.5363 15.2353 4.95127 17.5416 0.537109 17.7513C0.537109 4.16493 11.8878 0.139343 17.5632 0.139343C30.175 0.139341 35.2198 10.2033 35.8504 17.1223C25.2564 18.1287 19.4549 12.929 17.5632 10.2033Z" fill="#52525B"/>
<path fill-rule="evenodd" clip-rule="evenodd" d="M15.6458 24.151C15.6117 24.3185 15.5938 24.492 15.5938 24.6696C15.5938 26.1017 16.7577 27.2627 18.1934 27.2627C19.6292 27.2627 20.7931 26.1017 20.7931 24.6696C20.7931 24.492 20.7752 24.3185 20.7411 24.151H15.6458Z" fill="#52525B"/>
</svg>
